<mxfile host="Electron" modified="2023-10-08T14:03:15.755Z" agent="Mozilla/5.0 (Windows NT 10.0; Win64; x64) AppleWebKit/537.36 (KHTML, like Gecko) draw.io/21.6.8 Chrome/114.0.5735.289 Electron/25.5.0 Safari/537.36" etag="KnQjJFe40lrf9pkpa5wZ" version="21.6.8" type="device">
  <diagram name="Страница — 1" id="lp-DYHSzFe_p5AA7RoEz">
    <mxGraphModel dx="1418" dy="828" grid="1" gridSize="10" guides="1" tooltips="1" connect="1" arrows="1" fold="1" page="1" pageScale="1" pageWidth="827" pageHeight="1169" math="0" shadow="0">
      <root>
        <mxCell id="0" />
        <mxCell id="1" parent="0" />
        <mxCell id="Z5DiHy4IiABVQ086IiYG-1" value="Web app" style="html=1;dropTarget=0;whiteSpace=wrap;" vertex="1" parent="1">
          <mxGeometry x="80" y="200" width="180" height="90" as="geometry" />
        </mxCell>
        <mxCell id="Z5DiHy4IiABVQ086IiYG-2" value="" style="shape=module;jettyWidth=8;jettyHeight=4;" vertex="1" parent="Z5DiHy4IiABVQ086IiYG-1">
          <mxGeometry x="1" width="20" height="20" relative="1" as="geometry">
            <mxPoint x="-27" y="7" as="offset" />
          </mxGeometry>
        </mxCell>
        <mxCell id="Z5DiHy4IiABVQ086IiYG-3" value="Mobile app" style="html=1;dropTarget=0;whiteSpace=wrap;" vertex="1" parent="1">
          <mxGeometry x="80" y="350" width="180" height="90" as="geometry" />
        </mxCell>
        <mxCell id="Z5DiHy4IiABVQ086IiYG-4" value="" style="shape=module;jettyWidth=8;jettyHeight=4;" vertex="1" parent="Z5DiHy4IiABVQ086IiYG-3">
          <mxGeometry x="1" width="20" height="20" relative="1" as="geometry">
            <mxPoint x="-27" y="7" as="offset" />
          </mxGeometry>
        </mxCell>
        <mxCell id="Z5DiHy4IiABVQ086IiYG-5" value="" style="rounded=0;orthogonalLoop=1;jettySize=auto;html=1;endArrow=halfCircle;endFill=0;endSize=6;strokeWidth=1;sketch=0;exitX=1;exitY=0.5;exitDx=0;exitDy=0;" edge="1" parent="1" source="Z5DiHy4IiABVQ086IiYG-1">
          <mxGeometry relative="1" as="geometry">
            <mxPoint x="430" y="425" as="sourcePoint" />
            <mxPoint x="310" y="245" as="targetPoint" />
          </mxGeometry>
        </mxCell>
        <mxCell id="Z5DiHy4IiABVQ086IiYG-6" value="" style="rounded=0;orthogonalLoop=1;jettySize=auto;html=1;endArrow=oval;endFill=0;sketch=0;sourcePerimeterSpacing=0;targetPerimeterSpacing=0;endSize=10;exitX=0.033;exitY=0.3;exitDx=0;exitDy=0;exitPerimeter=0;" edge="1" target="Z5DiHy4IiABVQ086IiYG-7" parent="1" source="Z5DiHy4IiABVQ086IiYG-9">
          <mxGeometry relative="1" as="geometry">
            <mxPoint x="355" y="245" as="sourcePoint" />
          </mxGeometry>
        </mxCell>
        <mxCell id="Z5DiHy4IiABVQ086IiYG-7" value="" style="ellipse;whiteSpace=wrap;html=1;align=center;aspect=fixed;fillColor=none;strokeColor=none;resizable=0;perimeter=centerPerimeter;rotatable=0;allowArrows=0;points=[];outlineConnect=1;" vertex="1" parent="1">
          <mxGeometry x="305" y="240" width="10" height="10" as="geometry" />
        </mxCell>
        <mxCell id="Z5DiHy4IiABVQ086IiYG-9" value="API&lt;br&gt;Gateway" style="html=1;dropTarget=0;whiteSpace=wrap;" vertex="1" parent="1">
          <mxGeometry x="350" y="80" width="90" height="550" as="geometry" />
        </mxCell>
        <mxCell id="Z5DiHy4IiABVQ086IiYG-10" value="" style="shape=module;jettyWidth=8;jettyHeight=4;" vertex="1" parent="Z5DiHy4IiABVQ086IiYG-9">
          <mxGeometry x="1" width="20" height="20" relative="1" as="geometry">
            <mxPoint x="-27" y="7" as="offset" />
          </mxGeometry>
        </mxCell>
        <mxCell id="Z5DiHy4IiABVQ086IiYG-11" value="" style="rounded=0;orthogonalLoop=1;jettySize=auto;html=1;endArrow=halfCircle;endFill=0;endSize=6;strokeWidth=1;sketch=0;" edge="1" parent="1" source="Z5DiHy4IiABVQ086IiYG-3">
          <mxGeometry relative="1" as="geometry">
            <mxPoint x="229" y="394.5" as="sourcePoint" />
            <mxPoint x="309" y="394.5" as="targetPoint" />
          </mxGeometry>
        </mxCell>
        <mxCell id="Z5DiHy4IiABVQ086IiYG-12" value="" style="rounded=0;orthogonalLoop=1;jettySize=auto;html=1;endArrow=oval;endFill=0;sketch=0;sourcePerimeterSpacing=0;targetPerimeterSpacing=0;endSize=10;exitX=0;exitY=0.573;exitDx=0;exitDy=0;exitPerimeter=0;" edge="1" parent="1" source="Z5DiHy4IiABVQ086IiYG-9">
          <mxGeometry relative="1" as="geometry">
            <mxPoint x="369" y="394.5" as="sourcePoint" />
            <mxPoint x="309" y="394.5" as="targetPoint" />
          </mxGeometry>
        </mxCell>
        <mxCell id="Z5DiHy4IiABVQ086IiYG-13" value="Auth service" style="html=1;dropTarget=0;whiteSpace=wrap;" vertex="1" parent="1">
          <mxGeometry x="530" y="110" width="180" height="90" as="geometry" />
        </mxCell>
        <mxCell id="Z5DiHy4IiABVQ086IiYG-14" value="" style="shape=module;jettyWidth=8;jettyHeight=4;" vertex="1" parent="Z5DiHy4IiABVQ086IiYG-13">
          <mxGeometry x="1" width="20" height="20" relative="1" as="geometry">
            <mxPoint x="-27" y="7" as="offset" />
          </mxGeometry>
        </mxCell>
        <mxCell id="Z5DiHy4IiABVQ086IiYG-16" value="" style="ellipse;whiteSpace=wrap;html=1;align=center;aspect=fixed;fillColor=none;strokeColor=none;resizable=0;perimeter=centerPerimeter;rotatable=0;allowArrows=0;points=[];outlineConnect=1;" vertex="1" parent="1">
          <mxGeometry x="400" y="420" width="10" height="10" as="geometry" />
        </mxCell>
        <mxCell id="Z5DiHy4IiABVQ086IiYG-19" value="" style="rounded=0;orthogonalLoop=1;jettySize=auto;html=1;endArrow=halfCircle;endFill=0;endSize=6;strokeWidth=1;sketch=0;exitX=1.022;exitY=0.14;exitDx=0;exitDy=0;exitPerimeter=0;" edge="1" parent="1" source="Z5DiHy4IiABVQ086IiYG-9">
          <mxGeometry relative="1" as="geometry">
            <mxPoint x="460" y="190" as="sourcePoint" />
            <mxPoint x="490" y="157" as="targetPoint" />
          </mxGeometry>
        </mxCell>
        <mxCell id="Z5DiHy4IiABVQ086IiYG-20" value="" style="rounded=0;orthogonalLoop=1;jettySize=auto;html=1;endArrow=oval;endFill=0;sketch=0;sourcePerimeterSpacing=0;targetPerimeterSpacing=0;endSize=10;" edge="1" parent="1" source="Z5DiHy4IiABVQ086IiYG-13">
          <mxGeometry relative="1" as="geometry">
            <mxPoint x="529" y="155.48837209302326" as="sourcePoint" />
            <mxPoint x="490" y="157" as="targetPoint" />
          </mxGeometry>
        </mxCell>
        <mxCell id="Z5DiHy4IiABVQ086IiYG-22" value="" style="rounded=0;orthogonalLoop=1;jettySize=auto;html=1;endArrow=halfCircle;endFill=0;endSize=6;strokeWidth=1;sketch=0;" edge="1" parent="1">
          <mxGeometry relative="1" as="geometry">
            <mxPoint x="610" y="110" as="sourcePoint" />
            <mxPoint x="610" y="80" as="targetPoint" />
          </mxGeometry>
        </mxCell>
        <mxCell id="Z5DiHy4IiABVQ086IiYG-23" value="" style="rounded=0;orthogonalLoop=1;jettySize=auto;html=1;endArrow=oval;endFill=0;sketch=0;sourcePerimeterSpacing=0;targetPerimeterSpacing=0;endSize=10;" edge="1" parent="1">
          <mxGeometry relative="1" as="geometry">
            <mxPoint x="610" y="60" as="sourcePoint" />
            <mxPoint x="610" y="80" as="targetPoint" />
          </mxGeometry>
        </mxCell>
        <mxCell id="Z5DiHy4IiABVQ086IiYG-24" value="" style="ellipse;whiteSpace=wrap;html=1;align=center;aspect=fixed;fillColor=none;strokeColor=none;resizable=0;perimeter=centerPerimeter;rotatable=0;allowArrows=0;points=[];outlineConnect=1;" vertex="1" parent="1">
          <mxGeometry x="405" y="420" width="10" height="10" as="geometry" />
        </mxCell>
        <mxCell id="Z5DiHy4IiABVQ086IiYG-25" value="DB" style="html=1;dropTarget=0;whiteSpace=wrap;" vertex="1" parent="1">
          <mxGeometry x="560" width="100" height="60" as="geometry" />
        </mxCell>
        <mxCell id="Z5DiHy4IiABVQ086IiYG-26" value="" style="shape=module;jettyWidth=8;jettyHeight=4;" vertex="1" parent="Z5DiHy4IiABVQ086IiYG-25">
          <mxGeometry x="1" width="20" height="20" relative="1" as="geometry">
            <mxPoint x="-27" y="7" as="offset" />
          </mxGeometry>
        </mxCell>
        <mxCell id="Z5DiHy4IiABVQ086IiYG-34" value="Warehouse service" style="html=1;dropTarget=0;whiteSpace=wrap;" vertex="1" parent="1">
          <mxGeometry x="530" y="320" width="180" height="90" as="geometry" />
        </mxCell>
        <mxCell id="Z5DiHy4IiABVQ086IiYG-35" value="" style="shape=module;jettyWidth=8;jettyHeight=4;" vertex="1" parent="Z5DiHy4IiABVQ086IiYG-34">
          <mxGeometry x="1" width="20" height="20" relative="1" as="geometry">
            <mxPoint x="-27" y="7" as="offset" />
          </mxGeometry>
        </mxCell>
        <mxCell id="Z5DiHy4IiABVQ086IiYG-36" value="" style="rounded=0;orthogonalLoop=1;jettySize=auto;html=1;endArrow=halfCircle;endFill=0;endSize=6;strokeWidth=1;sketch=0;exitX=1.011;exitY=0.068;exitDx=0;exitDy=0;exitPerimeter=0;" edge="1" parent="1">
          <mxGeometry relative="1" as="geometry">
            <mxPoint x="441" y="367" as="sourcePoint" />
            <mxPoint x="490" y="367" as="targetPoint" />
          </mxGeometry>
        </mxCell>
        <mxCell id="Z5DiHy4IiABVQ086IiYG-37" value="" style="rounded=0;orthogonalLoop=1;jettySize=auto;html=1;endArrow=oval;endFill=0;sketch=0;sourcePerimeterSpacing=0;targetPerimeterSpacing=0;endSize=10;" edge="1" parent="1" source="Z5DiHy4IiABVQ086IiYG-34">
          <mxGeometry relative="1" as="geometry">
            <mxPoint x="529" y="365.48837209302326" as="sourcePoint" />
            <mxPoint x="490" y="367" as="targetPoint" />
          </mxGeometry>
        </mxCell>
        <mxCell id="Z5DiHy4IiABVQ086IiYG-38" value="" style="rounded=0;orthogonalLoop=1;jettySize=auto;html=1;endArrow=halfCircle;endFill=0;endSize=6;strokeWidth=1;sketch=0;" edge="1" parent="1">
          <mxGeometry relative="1" as="geometry">
            <mxPoint x="610" y="320" as="sourcePoint" />
            <mxPoint x="610" y="290" as="targetPoint" />
          </mxGeometry>
        </mxCell>
        <mxCell id="Z5DiHy4IiABVQ086IiYG-39" value="" style="rounded=0;orthogonalLoop=1;jettySize=auto;html=1;endArrow=oval;endFill=0;sketch=0;sourcePerimeterSpacing=0;targetPerimeterSpacing=0;endSize=10;" edge="1" parent="1">
          <mxGeometry relative="1" as="geometry">
            <mxPoint x="610" y="270" as="sourcePoint" />
            <mxPoint x="610" y="290" as="targetPoint" />
          </mxGeometry>
        </mxCell>
        <mxCell id="Z5DiHy4IiABVQ086IiYG-40" value="DB" style="html=1;dropTarget=0;whiteSpace=wrap;" vertex="1" parent="1">
          <mxGeometry x="560" y="210" width="100" height="60" as="geometry" />
        </mxCell>
        <mxCell id="Z5DiHy4IiABVQ086IiYG-41" value="" style="shape=module;jettyWidth=8;jettyHeight=4;" vertex="1" parent="Z5DiHy4IiABVQ086IiYG-40">
          <mxGeometry x="1" width="20" height="20" relative="1" as="geometry">
            <mxPoint x="-27" y="7" as="offset" />
          </mxGeometry>
        </mxCell>
        <mxCell id="Z5DiHy4IiABVQ086IiYG-42" value="Finance service" style="html=1;dropTarget=0;whiteSpace=wrap;" vertex="1" parent="1">
          <mxGeometry x="529" y="540" width="180" height="90" as="geometry" />
        </mxCell>
        <mxCell id="Z5DiHy4IiABVQ086IiYG-43" value="" style="shape=module;jettyWidth=8;jettyHeight=4;" vertex="1" parent="Z5DiHy4IiABVQ086IiYG-42">
          <mxGeometry x="1" width="20" height="20" relative="1" as="geometry">
            <mxPoint x="-27" y="7" as="offset" />
          </mxGeometry>
        </mxCell>
        <mxCell id="Z5DiHy4IiABVQ086IiYG-44" value="" style="rounded=0;orthogonalLoop=1;jettySize=auto;html=1;endArrow=halfCircle;endFill=0;endSize=6;strokeWidth=1;sketch=0;exitX=1.011;exitY=0.068;exitDx=0;exitDy=0;exitPerimeter=0;" edge="1" parent="1">
          <mxGeometry relative="1" as="geometry">
            <mxPoint x="440" y="587" as="sourcePoint" />
            <mxPoint x="489" y="587" as="targetPoint" />
          </mxGeometry>
        </mxCell>
        <mxCell id="Z5DiHy4IiABVQ086IiYG-45" value="" style="rounded=0;orthogonalLoop=1;jettySize=auto;html=1;endArrow=oval;endFill=0;sketch=0;sourcePerimeterSpacing=0;targetPerimeterSpacing=0;endSize=10;" edge="1" parent="1" source="Z5DiHy4IiABVQ086IiYG-42">
          <mxGeometry relative="1" as="geometry">
            <mxPoint x="528" y="585.4883720930233" as="sourcePoint" />
            <mxPoint x="489" y="587" as="targetPoint" />
          </mxGeometry>
        </mxCell>
        <mxCell id="Z5DiHy4IiABVQ086IiYG-46" value="" style="rounded=0;orthogonalLoop=1;jettySize=auto;html=1;endArrow=halfCircle;endFill=0;endSize=6;strokeWidth=1;sketch=0;" edge="1" parent="1">
          <mxGeometry relative="1" as="geometry">
            <mxPoint x="609" y="540" as="sourcePoint" />
            <mxPoint x="609" y="510" as="targetPoint" />
          </mxGeometry>
        </mxCell>
        <mxCell id="Z5DiHy4IiABVQ086IiYG-47" value="" style="rounded=0;orthogonalLoop=1;jettySize=auto;html=1;endArrow=oval;endFill=0;sketch=0;sourcePerimeterSpacing=0;targetPerimeterSpacing=0;endSize=10;" edge="1" parent="1">
          <mxGeometry relative="1" as="geometry">
            <mxPoint x="609" y="490" as="sourcePoint" />
            <mxPoint x="609" y="510" as="targetPoint" />
          </mxGeometry>
        </mxCell>
        <mxCell id="Z5DiHy4IiABVQ086IiYG-48" value="DB" style="html=1;dropTarget=0;whiteSpace=wrap;" vertex="1" parent="1">
          <mxGeometry x="559" y="430" width="100" height="60" as="geometry" />
        </mxCell>
        <mxCell id="Z5DiHy4IiABVQ086IiYG-49" value="" style="shape=module;jettyWidth=8;jettyHeight=4;" vertex="1" parent="Z5DiHy4IiABVQ086IiYG-48">
          <mxGeometry x="1" width="20" height="20" relative="1" as="geometry">
            <mxPoint x="-27" y="7" as="offset" />
          </mxGeometry>
        </mxCell>
        <mxCell id="Z5DiHy4IiABVQ086IiYG-50" value="MQ" style="html=1;dropTarget=0;whiteSpace=wrap;" vertex="1" parent="1">
          <mxGeometry x="800" y="80" width="90" height="600" as="geometry" />
        </mxCell>
        <mxCell id="Z5DiHy4IiABVQ086IiYG-51" value="" style="shape=module;jettyWidth=8;jettyHeight=4;" vertex="1" parent="Z5DiHy4IiABVQ086IiYG-50">
          <mxGeometry x="1" width="20" height="20" relative="1" as="geometry">
            <mxPoint x="-27" y="7" as="offset" />
          </mxGeometry>
        </mxCell>
        <mxCell id="Z5DiHy4IiABVQ086IiYG-52" value="" style="rounded=0;orthogonalLoop=1;jettySize=auto;html=1;endArrow=halfCircle;endFill=0;endSize=6;strokeWidth=1;sketch=0;exitX=1.022;exitY=0.14;exitDx=0;exitDy=0;exitPerimeter=0;" edge="1" parent="1">
          <mxGeometry relative="1" as="geometry">
            <mxPoint x="712" y="155" as="sourcePoint" />
            <mxPoint x="760" y="155" as="targetPoint" />
          </mxGeometry>
        </mxCell>
        <mxCell id="Z5DiHy4IiABVQ086IiYG-53" value="" style="rounded=0;orthogonalLoop=1;jettySize=auto;html=1;endArrow=oval;endFill=0;sketch=0;sourcePerimeterSpacing=0;targetPerimeterSpacing=0;endSize=10;" edge="1" parent="1">
          <mxGeometry relative="1" as="geometry">
            <mxPoint x="800" y="154" as="sourcePoint" />
            <mxPoint x="760" y="155" as="targetPoint" />
          </mxGeometry>
        </mxCell>
        <mxCell id="Z5DiHy4IiABVQ086IiYG-54" value="" style="rounded=0;orthogonalLoop=1;jettySize=auto;html=1;endArrow=halfCircle;endFill=0;endSize=6;strokeWidth=1;sketch=0;exitX=1.022;exitY=0.14;exitDx=0;exitDy=0;exitPerimeter=0;" edge="1" parent="1">
          <mxGeometry relative="1" as="geometry">
            <mxPoint x="711" y="365" as="sourcePoint" />
            <mxPoint x="759" y="365" as="targetPoint" />
          </mxGeometry>
        </mxCell>
        <mxCell id="Z5DiHy4IiABVQ086IiYG-55" value="" style="rounded=0;orthogonalLoop=1;jettySize=auto;html=1;endArrow=oval;endFill=0;sketch=0;sourcePerimeterSpacing=0;targetPerimeterSpacing=0;endSize=10;" edge="1" parent="1">
          <mxGeometry relative="1" as="geometry">
            <mxPoint x="799" y="364" as="sourcePoint" />
            <mxPoint x="759" y="365" as="targetPoint" />
          </mxGeometry>
        </mxCell>
        <mxCell id="Z5DiHy4IiABVQ086IiYG-56" value="" style="rounded=0;orthogonalLoop=1;jettySize=auto;html=1;endArrow=halfCircle;endFill=0;endSize=6;strokeWidth=1;sketch=0;exitX=1.022;exitY=0.14;exitDx=0;exitDy=0;exitPerimeter=0;" edge="1" parent="1">
          <mxGeometry relative="1" as="geometry">
            <mxPoint x="710" y="584" as="sourcePoint" />
            <mxPoint x="758" y="584" as="targetPoint" />
          </mxGeometry>
        </mxCell>
        <mxCell id="Z5DiHy4IiABVQ086IiYG-57" value="" style="rounded=0;orthogonalLoop=1;jettySize=auto;html=1;endArrow=oval;endFill=0;sketch=0;sourcePerimeterSpacing=0;targetPerimeterSpacing=0;endSize=10;" edge="1" parent="1">
          <mxGeometry relative="1" as="geometry">
            <mxPoint x="798" y="583" as="sourcePoint" />
            <mxPoint x="758" y="584" as="targetPoint" />
          </mxGeometry>
        </mxCell>
      </root>
    </mxGraphModel>
  </diagram>
</mxfile>
